<?xml version="1.0" standalone="no"?>
<!DOCTYPE svg PUBLIC "-//W3C//DTD SVG 20010904//EN"
 "http://www.w3.org/TR/2001/REC-SVG-20010904/DTD/svg10.dtd">
<svg version="1.0" xmlns="http://www.w3.org/2000/svg"
 width="1000.000000pt" height="1000.000000pt" viewBox="0 0 1000.000000 1000.000000"
 preserveAspectRatio="xMidYMid meet">
<metadata>
Created by potrace 1.14, written by Peter Selinger 2001-2017
</metadata>
<g transform="translate(0.000000,1000.000000) scale(0.100000,-0.100000)"
fill="#000000" stroke="none">
<path d="M5136 8146 c-23 -9 -61 -38 -90 -69 -57 -60 -108 -84 -239 -111 -87
-18 -232 -21 -274 -5 -15 5 -46 30 -68 54 -49 53 -113 75 -240 82 -105 6 -205
-12 -288 -51 -56 -27 -94 -64 -177 -174 -114 -151 -242 -185 -445 -118 -154
52 -292 43 -433 -26 -113 -56 -202 -157 -202 -229 0 -71 -138 -279 -257 -388
l-66 -61 -82 0 c-95 0 -158 -17 -272 -72 -145 -71 -190 -138 -212 -321 -12
-102 -47 -172 -129 -259 -63 -67 -197 -165 -291 -213 -59 -30 -94 -67 -123
-130 -38 -85 -26 -287 32 -515 11 -41 18 -76 16 -78 -2 -1 -37 6 -77 18 -132
36 -149 28 -149 -69 0 -96 -18 -273 -46 -459 -49 -330 -24 -457 140 -717 60
-95 176 -317 221 -424 14 -35 44 -131 66 -214 63 -240 82 -273 273 -462 385
-383 821 -745 1026 -853 166 -89 206 -97 688 -148 l437 -46 255 -78 c140 -44
284 -87 320 -96 95 -25 212 -22 379 10 191 37 222 34 386 -37 72 -31 157 -63
190 -72 84 -23 288 -31 340 -13 37 12 40 16 37 46 -7 66 51 117 423 377 299
209 386 277 464 360 118 127 127 182 55 336 -33 70 -45 105 -40 123 18 71 286
228 779 455 107 49 255 123 328 164 74 41 177 96 229 122 327 164 535 300 686
450 110 109 114 114 178 248 90 188 108 243 114 358 11 220 -90 437 -266 573
-45 34 -68 61 -94 113 -68 130 -134 380 -165 626 -15 116 -16 150 -5 244 42
377 -23 516 -302 651 -175 85 -229 124 -411 302 -176 172 -218 204 -338 260
-111 52 -198 74 -264 66 -62 -7 -191 -53 -267 -94 l-53 -29 -13 36 c-17 46
-128 156 -201 199 -69 40 -158 72 -202 72 -19 0 -55 -11 -81 -25 -57 -30 -97
-31 -227 -5 -202 41 -340 109 -344 170 -7 90 -169 148 -440 156 -116 3 -159 1
-189 -10z m127 -806 c289 -20 484 -68 688 -171 264 -131 393 -247 506 -450
l31 -56 -23 -40 c-35 -62 -110 -161 -359 -473 l-227 -285 -72 -25 c-67 -23
-86 -25 -268 -25 -152 0 -200 -3 -213 -14 -31 -26 -150 -216 -228 -365 -137
-260 -256 -424 -340 -467 -26 -13 -58 -19 -106 -19 -38 0 -104 -9 -146 -20
-227 -58 -355 -219 -356 -444 l0 -69 -57 64 c-101 113 -225 238 -262 263 -29
20 -57 27 -141 36 -304 32 -664 125 -904 234 -70 32 -87 36 -162 36 -46 0
-130 -9 -186 -20 -125 -24 -270 -27 -288 -5 -33 40 -53 266 -39 449 34 455
209 831 531 1141 456 440 1136 669 2153 724 219 12 303 12 468 1z"/>
<path d="M4250 6879 c-354 -41 -770 -222 -1118 -488 -255 -194 -470 -435 -538
-602 -30 -73 -30 -93 -1 -111 70 -46 138 -142 166 -233 l17 -54 55 106 c69
136 183 310 286 438 104 130 303 321 438 422 351 264 785 442 1145 471 l95 8
-70 16 c-152 36 -313 45 -475 27z"/>
</g>
</svg>
