<svg width="250" height="250" viewBox="0 0 250 250" fill="none" xmlns="http://www.w3.org/2000/svg">
<path fill-rule="evenodd" clip-rule="evenodd" d="M26.9019 113.453C26.9019 113.453 26.859 112.353 28.1631 112.58C29.4673 112.805 32.6792 113.71 32.6792 113.71C32.6792 113.71 30.6643 106.863 30.6917 101.847C30.7101 98.5148 32.458 96.4794 33.2884 96.0191C35.3686 94.8654 35.4115 94.8415 35.4115 94.8415C35.4115 94.8415 44.5771 90.0565 44.8854 83.8687C45.1938 77.6809 47.9355 76.5377 51.7382 74.8689C55.541 73.2002 57.1549 74.0739 58.474 73.9275C59.793 73.781 66.7609 66.6368 67.1106 62.4375C67.4603 58.2388 75.6152 53.6271 82.0725 56.0037C88.5303 58.3808 92.0202 56.9606 95.4045 51.5299C98.7883 46.0988 110.573 47.0034 111.752 49.9912C112.931 52.9795 125.091 50.7942 126.285 48.2029C127.478 45.6116 131.92 46.045 132.224 46.0052C132.593 45.9568 138.577 46.2448 141.889 47.6794C143.321 48.3001 144.236 49.3641 144.01 50.3285C143.957 50.7833 144.663 51.1608 145.112 51.5613C147.635 53.8104 156.302 55.1872 157.249 54.842C158.363 54.4356 159.198 53.0707 162.032 53.8791C164.865 54.6876 170.186 57.9324 170.729 61.3536C170.729 61.3536 176.797 57.6276 180.49 58.1875C182.249 58.4545 185.688 59.6346 188.532 61.5852C191.659 63.7297 194.155 66.6811 194.969 67.4786C195.65 68.1466 197.327 70.0156 199.493 71.4263C202.264 73.2311 205.552 74.5561 205.552 74.5561C205.552 74.5561 209.606 76.3788 211.115 80.2418C212.637 84.1382 211.613 90.0804 211.388 91.2973C210.94 93.7212 213.543 111.64 217.872 114.498C222.201 117.356 227.768 125.764 223.321 135.037C221.189 139.484 221.271 139.94 219.858 141.646C218.325 143.495 215.287 146.468 212.59 148.349C209.953 150.187 206.073 152.363 202.551 154.21C200.205 155.441 198.282 156.307 196.023 157.635C190.861 160.671 185.78 162.768 181.67 164.695C177.197 166.793 173.909 168.593 173.85 168.708C173.708 168.985 169.947 170.664 168.123 172.305C166.856 173.445 166.755 174.587 166.755 174.587C166.755 174.587 168.008 176.64 168.602 178.223C169.071 179.475 169.542 180.238 169.042 181.858C168.746 182.814 167.372 184.998 164.726 187.206C159.809 191.305 151.739 196.355 147.327 199.841C144.998 201.682 143.98 203.239 144.35 203.657C146.09 205.624 138.184 205.46 134.95 204.484C132.34 203.697 129.686 202.53 127.06 201.261C125.758 200.633 121.452 201.687 120.535 201.828C118.51 202.137 116.797 202.589 115.216 202.571C114.305 202.56 113.145 202.563 111.015 201.983C105.806 200.566 97.9505 197.905 97.147 197.778C96.0152 197.597 77.122 195.653 75.4762 195.429C74.8899 195.35 70.1168 194.139 65.3552 190.769C56.7579 184.683 46.0212 174.461 43.9629 172.338C42.7938 171.133 39.8468 168.875 38.3086 165.909C36.876 163.147 36.4167 159.781 35.5823 157.079C34.7345 154.333 33.52 152.266 33.133 151.418C30.7843 146.275 28.8092 143.42 28.1437 142.451C27.4398 141.426 25.6256 138.155 25.1146 134.319C24.7156 131.324 25.4528 127.979 25.8877 125.119C26.8799 118.595 26.9019 113.453 26.9019 113.453Z" fill="#08480E"/>
<path fill-rule="evenodd" clip-rule="evenodd" d="M28.7435 114.555C32.471 115.039 42.6598 120.86 49.1116 124.533C50.1133 125.103 51.275 125.641 52.3146 126.113C54.5029 127.107 56.7544 127.054 57.2331 127.038C57.2331 127.038 58.0217 126.873 62.472 125.984C66.9223 125.094 68.9303 126.307 70.5616 127.207C71.3039 127.616 76.2598 129.563 81.2879 130.658C87.3083 131.969 93.4931 132.421 93.4931 132.421L104.465 143.364C104.465 143.364 110.434 152.146 114.101 152.063C117.768 151.98 143.507 152.517 145.822 153.969C148.137 155.421 151.243 163.013 151.042 166.853C150.842 170.694 152.964 171.921 154.565 172.742C156.343 173.654 164.694 174.169 165.264 175.895C165.666 177.112 167.653 179.822 167.368 180.005C167.939 181.17 166.562 182.819 165.119 184.528C161.793 187.345 158.334 189.944 154.72 192.285C154.72 192.285 141.171 200.816 142.559 203.349C142.559 203.349 136.449 203.154 133.523 202.339C130.597 201.523 128.435 199.824 128.435 199.824C128.435 199.824 126.112 198.989 121.992 199.825C117.872 200.661 114.064 201.334 111.505 200.277C108.946 199.221 97.7173 195.678 95.6859 195.745C93.654 195.81 75.7975 193.658 75.7975 193.658C72.2757 192.837 69.0498 191.183 66.0356 188.933C61.0354 185.191 56.5975 181.169 52.4102 177.354C49.4179 174.627 46.2229 172.097 43.4453 169.351C43.4453 169.351 42.067 167.967 40.876 166.195C39.8722 164.702 38.9581 162.934 38.6568 161.744C38.5572 161.349 38.3963 160.876 38.2613 160.342C37.6117 157.775 36.2518 153.863 34.4122 150.104C33.2027 147.633 31.7547 145.085 30.5746 142.855C30.1502 142.053 29.2281 140.952 28.8705 140.246C27.8264 138.184 27.2326 136.146 27.2326 136.146C27.2326 136.146 26.9552 134.501 26.8481 133.544C26.7126 132.33 26.9452 131.083 26.9039 129.971C26.8635 128.875 26.9532 127.942 27.0279 127.34C27.3885 124.418 28.5547 114.342 28.7435 114.555Z" fill="#C2E1C0"/>
<path fill-rule="evenodd" clip-rule="evenodd" d="M113.932 150.238L113.035 149.842L111.51 148.598L108.894 145.858L106.12 142.471C105.918 141.21 105.703 139.957 105.566 138.656C105.526 137.98 105.621 137.319 105.713 136.658L106.18 134.566C106.362 134.152 106.576 133.78 106.784 133.4C106.685 133.377 107.925 131.892 108.34 131.68L109.784 130.416L112.19 129.119L114.152 128.345L116.034 128.089L117.846 128.167L120.408 126.81L123.132 124.498L124.905 122.065L126.25 119.822L127.729 117.212L129.113 114.552L130.623 112.445L131.972 109.798L133.252 107.802L134.44 106.586L134.908 106.455L135.637 106.308L136.364 106.409L137.258 106.62L138.414 106.823L140.601 106.977L142.634 106.818L143.967 106.606L145.592 106.161L146.467 105.875L147.362 105.558L148.095 105.082L148.924 104.359L149.878 103.415L150.641 102.547L151.351 101.673L152.278 100.501L153.64 98.7225L155.243 96.571L157.434 93.518L160.819 88.8146L162.678 86.17L164.177 84.1088L165.311 82.6089L166.718 80.7538L167.652 79.5957L168.714 78.2647L169.857 76.8849L171.142 75.511L172.312 74.3693L173.334 73.5523L174.11 73.1693L174.408 72.9441L174.561 72.6278L174.608 72.2423L174.49 71.7551L174.309 71.0946L173.958 70.0874L173.179 68.6248L172.66 67.8617L169.709 64.3932L174.345 61.4089L176.51 60.5765L178.363 60.0973L180.167 60.032L181.979 60.4201L183.415 60.9436L184.933 61.5668L186.16 62.2487L187.804 63.3855L189.119 64.3065L190.118 65.3496L191.238 66.3479L192.51 67.652L193.968 69.1867L195.649 70.7399L197.508 72.3683L199.469 73.8268L201.055 74.7877L202.42 75.3895L203.559 75.8612L204.812 76.2308L205.429 76.6064L206.245 77.0637L207.108 77.7561L207.818 78.4993L208.964 80.2109L209.464 81.4353L209.738 82.3857L209.953 83.367L210.074 85.1549L210.047 86.3573L209.986 87.3939L209.877 88.5685L209.762 89.6849L209.523 91.247L209.557 94.0898L209.676 96.0978L209.741 97.243L210.018 99.1763L210.345 101.097L210.754 102.97L211.617 106.032L212.13 107.779L212.92 109.495L213.49 110.809L214.4 112.647L215.51 114.552L216.461 115.794L217.938 117.419L218.911 118.407L219.818 119.395L221.152 121.181L222 122.729L222.808 125.367L222.985 126.463L223.012 127.292L223.018 127.909L223.015 128.296L222.965 128.95L222.838 129.507L222.659 130.578L221.829 133.513L220.868 135.799L218.648 140.243L215.938 143.107L214.831 144.199L212.445 146.068L210.758 147.307L208.268 148.938L205.481 150.627L202.028 152.518L200.145 153.561L198.009 154.77L194.567 156.506L191.656 157.961L188.422 159.521L184.221 161.445L178.708 164.078L174.959 165.929L172.213 167.375L169.146 169.249L167.273 170.637L166.163 171.706L165.751 172.151L165.431 172.625L165.106 173.346L164.406 173.03L163.862 172.852L163.02 172.582L161.813 172.338L160.154 172.055L158.95 171.869L157.436 171.634L156.494 171.418L155.635 171.179L154.715 170.718L154.215 170.34L153.751 169.853L153.582 169.587L153.295 169.051L153.167 168.629L153.044 168.149L152.956 167.506L152.943 167.081L152.916 166.31L152.831 165.382L152.746 164.53L152.675 163.936L152.588 163.384L152.492 162.887L152.35 162.219L152.144 161.454L151.978 160.81L151.776 160.219L151.518 159.461L151.282 158.95L151.037 158.353L150.802 157.839L150.556 157.375L150.29 156.84L149.876 156.173L149.481 155.554L148.64 154.396L148.211 153.828L147.717 153.235L147.301 152.751L147.192 152.587L146.918 152.423L146.637 152.255L146.178 152.044L144.718 151.647L142.515 151.291L139.87 151.003L137.862 150.804L135.17 150.599L130.267 150.336L127.633 150.198L125.219 150.158L120.962 150.07L115.46 150.105L114.307 150.198L113.932 150.238Z" fill="#C2E1C0"/>
<path fill-rule="evenodd" clip-rule="evenodd" d="M53.5166 124.4C52.4665 123.712 43.2252 74.2607 109.521 67.2585C136.396 64.4196 144.448 67.7865 153.022 72.9486C159.912 77.0966 160.953 81.3626 162.286 83.2316C163.027 84.2722 147.04 103.118 147.166 103.424C147.166 103.424 141.873 105.67 137.421 104.764C132.969 103.858 132.377 106.106 132.373 106.11C132.369 106.115 128.882 111.432 128.882 111.432C128.882 111.432 122.003 126.559 117.604 126.322C113.012 126.074 102.879 127.976 103.88 139.825C104.148 140.521 96.2065 130.705 94.2603 130.759C93.1161 130.791 80.0063 129.821 67.9883 124.012C67.9883 124.012 65.685 123.157 59.6411 124.679C59.6411 124.679 53.9863 125.441 53.5166 124.4Z" fill="#E9F8E8"/>
<path fill-rule="evenodd" clip-rule="evenodd" d="M34.9745 114.589L51.3979 123.579C50.6542 123.579 49.3695 109.416 54.8684 96.1706C58.3578 87.7646 67.5254 77.8029 76.2218 73.9902C78.4161 73.0283 86.8734 69.3038 100.325 66.7031C112.128 64.4216 128.095 63.9678 135.637 65.2545C155.611 68.6627 158.89 74.3255 163.784 81.6784C163.784 81.6784 170.543 72.443 172.595 71.8348C172.595 71.8348 169.471 66.7061 167.753 64.9995C167.753 64.9995 166.907 64.451 167.612 63.5628L168.856 62.7045C168.856 62.7045 169.629 61.6998 166.991 58.7713C164.354 55.8428 160.264 55.2983 159.059 56.0007C159.059 56.0007 158.165 57.2709 153.688 56.8924C149.212 56.5133 142.022 53.1534 142.164 50.0615C142.164 50.0615 133.872 45.9858 128.275 49.0169C128.275 49.0169 126.425 51.7412 121.603 52.5731C116.781 53.4049 112.661 53.3656 110.911 51.9519C110.911 51.9519 109.88 51.0249 109.521 50.5028C109.521 50.5028 103.037 47.4901 97.3217 52.197C97.3217 52.197 95.4975 55.9613 91.5688 57.9439C91.5688 57.9439 87.1603 61.0672 81.0203 57.5424C81.0203 57.5424 78.3125 55.9479 73.6166 57.9095C68.9207 59.8707 69.0462 62.6039 69.0168 62.5925C69.0168 62.5925 67.2803 72.9571 59.759 75.6704C59.759 75.6704 58.8231 76.2403 56.6173 75.7083C53.8841 75.0488 46.4495 78.5337 46.9536 81.7307L46.575 84.4301C46.4883 85.0463 46.1585 86.5292 45.4148 87.9803C44.6676 89.4373 43.505 90.8625 42.7269 91.7526C41.6624 92.9701 37.6156 96.048 34.3408 97.4C34.3408 97.4 31.9653 98.8147 32.6811 104.657C33.3964 110.499 34.9745 114.589 34.9745 114.589Z" fill="#8DCE88"/>
<path fill-rule="evenodd" clip-rule="evenodd" d="M146.841 144.15C145.757 143.303 153.274 144.376 156.436 150.594C166.714 151.023 201.371 114.14 191.811 81.795C193.496 91.7431 182.903 129.164 146.841 144.15Z" fill="#CCF5CA"/>
<path fill-rule="evenodd" clip-rule="evenodd" d="M69.1418 116.102C69.7946 117.055 69.1637 110.591 64.2135 107.697C64.1942 98.8909 95.2661 70.3628 121.235 79.5243C113.208 77.7807 82.4696 85.7058 69.1418 116.102Z" fill="#DDE9DC"/>
<path fill-rule="evenodd" clip-rule="evenodd" d="M129.946 173.346C131.003 172.636 128.522 175.758 125.44 180.977C115.421 181.337 38.5056 166.817 47.8236 139.67C46.1819 157.053 94.7938 168.926 129.946 173.346Z" fill="#CCF5CA"/>
<path fill-rule="evenodd" clip-rule="evenodd" d="M26.9019 113.453C26.9019 113.453 26.859 112.353 28.1631 112.58C29.4673 112.805 32.6792 113.71 32.6792 113.71C32.6792 113.71 30.6643 106.863 30.6917 101.847C30.7101 98.5148 32.458 96.4794 33.2884 96.0191C35.3686 94.8654 35.4115 94.8415 35.4115 94.8415C35.4115 94.8415 44.5771 90.0565 44.8854 83.8687C45.1938 77.6809 47.9355 76.5377 51.7382 74.8689C55.541 73.2002 57.1549 74.0739 58.474 73.9275C59.793 73.781 66.7609 66.6368 67.1106 62.4375C67.4603 58.2388 75.6152 53.6271 82.0725 56.0037C88.5303 58.3808 92.0202 56.9606 95.4045 51.5299C98.7883 46.0988 110.573 47.0034 111.752 49.9912C112.931 52.9795 125.091 50.7942 126.285 48.2029C127.478 45.6116 131.92 46.045 132.224 46.0052C132.593 45.9568 138.577 46.2448 141.889 47.6794C143.321 48.3001 144.236 49.3641 144.01 50.3285C143.957 50.7833 144.663 51.1608 145.112 51.5613C147.635 53.8104 156.302 55.1872 157.249 54.842C158.363 54.4356 159.198 53.0707 162.032 53.8791C164.865 54.6876 170.186 57.9324 170.729 61.3536C170.729 61.3536 176.797 57.6276 180.49 58.1875C182.249 58.4545 185.688 59.6346 188.532 61.5852C191.659 63.7297 194.155 66.6811 194.969 67.4786C195.65 68.1466 197.327 70.0156 199.493 71.4263C202.264 73.2311 205.552 74.5561 205.552 74.5561C205.552 74.5561 209.606 76.3788 211.115 80.2418C212.637 84.1382 211.613 90.0804 211.388 91.2973C210.94 93.7212 213.543 111.64 217.872 114.498C222.201 117.356 227.768 125.764 223.321 135.037C221.189 139.484 221.271 139.94 219.858 141.646C218.325 143.495 215.287 146.468 212.59 148.349C209.953 150.187 206.073 152.363 202.551 154.21C200.205 155.441 198.282 156.307 196.023 157.635C190.861 160.671 185.78 162.768 181.67 164.695C177.197 166.793 173.909 168.593 173.85 168.708C173.708 168.985 169.947 170.664 168.123 172.305C166.856 173.445 166.755 174.587 166.755 174.587C166.755 174.587 168.008 176.64 168.602 178.223C169.071 179.475 169.542 180.238 169.042 181.858C168.746 182.814 167.372 184.998 164.726 187.206C159.809 191.305 151.739 196.355 147.327 199.841C144.998 201.682 143.98 203.239 144.35 203.657C146.09 205.624 138.184 205.46 134.95 204.484C132.34 203.697 129.686 202.53 127.06 201.261C125.758 200.633 121.452 201.687 120.535 201.828C118.51 202.137 116.797 202.589 115.216 202.571C114.305 202.56 113.145 202.563 111.015 201.983C105.806 200.566 97.9505 197.905 97.147 197.778C96.0152 197.597 77.122 195.653 75.4762 195.429C74.8899 195.35 70.1168 194.139 65.3552 190.769C56.7579 184.683 46.0212 174.461 43.9629 172.338C42.7938 171.133 39.8468 168.875 38.3086 165.909C36.876 163.147 36.4167 159.781 35.5823 157.079C34.7345 154.333 33.52 152.266 33.133 151.418C30.7843 146.275 28.8092 143.42 28.1437 142.451C27.4398 141.426 25.6256 138.155 25.1146 134.319C24.7156 131.324 25.4528 127.979 25.8877 125.119C26.8799 118.595 26.9019 113.453 26.9019 113.453Z" fill="#08480E"/>
<path fill-rule="evenodd" clip-rule="evenodd" d="M28.7435 114.555C32.471 115.039 42.6598 120.86 49.1116 124.533C50.1133 125.103 51.275 125.641 52.3146 126.113C54.5029 127.107 56.7544 127.054 57.2331 127.038C57.2331 127.038 58.0217 126.873 62.472 125.984C66.9223 125.094 68.9303 126.307 70.5616 127.207C71.3039 127.616 76.2598 129.563 81.2879 130.658C87.3083 131.969 93.4931 132.421 93.4931 132.421L104.465 143.364C104.465 143.364 110.434 152.146 114.101 152.063C117.768 151.98 143.507 152.517 145.822 153.969C148.137 155.421 151.243 163.013 151.042 166.853C150.842 170.694 152.964 171.921 154.565 172.742C156.343 173.654 164.694 174.169 165.264 175.895C165.666 177.112 167.653 179.822 167.368 180.005C167.939 181.17 166.562 182.819 165.119 184.528C161.793 187.345 158.334 189.944 154.72 192.285C154.72 192.285 141.171 200.816 142.559 203.349C142.559 203.349 136.449 203.154 133.523 202.339C130.597 201.523 128.435 199.824 128.435 199.824C128.435 199.824 126.112 198.989 121.992 199.825C117.872 200.661 114.064 201.334 111.505 200.277C108.946 199.221 97.7173 195.678 95.6859 195.745C93.654 195.81 75.7975 193.658 75.7975 193.658C72.2757 192.837 69.0498 191.183 66.0356 188.933C61.0354 185.191 56.5975 181.169 52.4102 177.354C49.4179 174.627 46.2229 172.097 43.4453 169.351C43.4453 169.351 42.067 167.967 40.876 166.195C39.8722 164.702 38.9581 162.934 38.6568 161.744C38.5572 161.349 38.3963 160.876 38.2613 160.342C37.6117 157.775 36.2518 153.863 34.4122 150.104C33.2027 147.633 31.7547 145.085 30.5746 142.855C30.1502 142.053 29.2281 140.952 28.8705 140.246C27.8264 138.184 27.2326 136.146 27.2326 136.146C27.2326 136.146 26.9552 134.501 26.8481 133.544C26.7126 132.33 26.9452 131.083 26.9039 129.971C26.8635 128.875 26.9532 127.942 27.0279 127.34C27.3885 124.418 28.5547 114.342 28.7435 114.555Z" fill="#C2E1C0"/>
<path fill-rule="evenodd" clip-rule="evenodd" d="M113.932 150.238L113.035 149.842L111.51 148.598L108.894 145.858L106.12 142.471C105.918 141.21 105.703 139.957 105.566 138.656C105.526 137.98 105.621 137.319 105.713 136.658L106.18 134.566C106.362 134.152 106.576 133.78 106.784 133.4C106.685 133.377 107.925 131.892 108.34 131.68L109.784 130.416L112.19 129.119L114.152 128.345L116.034 128.089L117.846 128.167L120.408 126.81L123.132 124.498L124.905 122.065L126.25 119.822L127.729 117.212L129.113 114.552L130.623 112.445L131.972 109.798L133.252 107.802L134.44 106.586L134.908 106.455L135.637 106.308L136.364 106.409L137.258 106.62L138.414 106.823L140.601 106.977L142.634 106.818L143.967 106.606L145.592 106.161L146.467 105.875L147.362 105.558L148.095 105.082L148.924 104.359L149.878 103.415L150.641 102.547L151.351 101.673L152.278 100.501L153.64 98.7225L155.243 96.571L157.434 93.518L160.819 88.8146L162.678 86.17L164.177 84.1088L165.311 82.6089L166.718 80.7538L167.652 79.5957L168.714 78.2647L169.857 76.8849L171.142 75.511L172.312 74.3693L173.334 73.5523L174.11 73.1693L174.408 72.9441L174.561 72.6278L174.608 72.2423L174.49 71.7551L174.309 71.0946L173.958 70.0874L173.179 68.6248L172.66 67.8617L169.709 64.3932L174.345 61.4089L176.51 60.5765L178.363 60.0973L180.167 60.032L181.979 60.4201L183.415 60.9436L184.933 61.5668L186.16 62.2487L187.804 63.3855L189.119 64.3065L190.118 65.3496L191.238 66.3479L192.51 67.652L193.968 69.1867L195.649 70.7399L197.508 72.3683L199.469 73.8268L201.055 74.7877L202.42 75.3895L203.559 75.8612L204.812 76.2308L205.429 76.6064L206.245 77.0637L207.108 77.7561L207.818 78.4993L208.964 80.2109L209.464 81.4353L209.738 82.3857L209.953 83.367L210.074 85.1549L210.047 86.3573L209.986 87.3939L209.877 88.5685L209.762 89.6849L209.523 91.247L209.557 94.0898L209.676 96.0978L209.741 97.243L210.018 99.1763L210.345 101.097L210.754 102.97L211.617 106.032L212.13 107.779L212.92 109.495L213.49 110.809L214.4 112.647L215.51 114.552L216.461 115.794L217.938 117.419L218.911 118.407L219.818 119.395L221.152 121.181L222 122.729L222.808 125.367L222.985 126.463L223.012 127.292L223.018 127.909L223.015 128.296L222.965 128.95L222.838 129.507L222.659 130.578L221.829 133.513L220.868 135.799L218.648 140.243L215.938 143.107L214.831 144.199L212.445 146.068L210.758 147.307L208.268 148.938L205.481 150.627L202.028 152.518L200.145 153.561L198.009 154.77L194.567 156.506L191.656 157.961L188.422 159.521L184.221 161.445L178.708 164.078L174.959 165.929L172.213 167.375L169.146 169.249L167.273 170.637L166.163 171.706L165.751 172.151L165.431 172.625L165.106 173.346L164.406 173.03L163.862 172.852L163.02 172.582L161.813 172.338L160.154 172.055L158.95 171.869L157.436 171.634L156.494 171.418L155.635 171.179L154.715 170.718L154.215 170.34L153.751 169.853L153.582 169.587L153.295 169.051L153.167 168.629L153.044 168.149L152.956 167.506L152.943 167.081L152.916 166.31L152.831 165.382L152.746 164.53L152.675 163.936L152.588 163.384L152.492 162.887L152.35 162.219L152.144 161.454L151.978 160.81L151.776 160.219L151.518 159.461L151.282 158.95L151.037 158.353L150.802 157.839L150.556 157.375L150.29 156.84L149.876 156.173L149.481 155.554L148.64 154.396L148.211 153.828L147.717 153.235L147.301 152.751L147.192 152.587L146.918 152.423L146.637 152.255L146.178 152.044L144.718 151.647L142.515 151.291L139.87 151.003L137.862 150.804L135.17 150.599L130.267 150.336L127.633 150.198L125.219 150.158L120.962 150.07L115.46 150.105L114.307 150.198L113.932 150.238Z" fill="#C2E1C0"/>
<path fill-rule="evenodd" clip-rule="evenodd" d="M53.5166 124.4C52.4665 123.712 43.2252 74.2607 109.521 67.2585C136.396 64.4196 144.448 67.7865 153.022 72.9486C159.912 77.0966 160.953 81.3626 162.286 83.2316C163.027 84.2722 147.04 103.118 147.166 103.424C147.166 103.424 141.873 105.67 137.421 104.764C132.969 103.858 132.377 106.106 132.373 106.11C132.369 106.115 128.882 111.432 128.882 111.432C128.882 111.432 122.003 126.559 117.604 126.322C113.012 126.074 102.879 127.976 103.88 139.825C104.148 140.521 96.2065 130.705 94.2603 130.759C93.1161 130.791 80.0063 129.821 67.9883 124.012C67.9883 124.012 65.685 123.157 59.6411 124.679C59.6411 124.679 53.9863 125.441 53.5166 124.4Z" fill="#E9F8E8"/>
<path fill-rule="evenodd" clip-rule="evenodd" d="M34.9745 114.589L51.3979 123.579C50.6542 123.579 49.3695 109.416 54.8684 96.1706C58.3578 87.7646 67.5254 77.8029 76.2218 73.9902C78.4161 73.0283 86.8734 69.3038 100.325 66.7031C112.128 64.4216 128.095 63.9678 135.637 65.2545C155.611 68.6627 158.89 74.3255 163.784 81.6784C163.784 81.6784 170.543 72.443 172.595 71.8348C172.595 71.8348 169.471 66.7061 167.753 64.9995C167.753 64.9995 166.907 64.451 167.612 63.5628L168.856 62.7045C168.856 62.7045 169.629 61.6998 166.991 58.7713C164.354 55.8428 160.264 55.2983 159.059 56.0007C159.059 56.0007 158.165 57.2709 153.688 56.8924C149.212 56.5133 142.022 53.1534 142.164 50.0615C142.164 50.0615 133.872 45.9858 128.275 49.0169C128.275 49.0169 126.425 51.7412 121.603 52.5731C116.781 53.4049 112.661 53.3656 110.911 51.9519C110.911 51.9519 109.88 51.0249 109.521 50.5028C109.521 50.5028 103.037 47.4901 97.3217 52.197C97.3217 52.197 95.4975 55.9613 91.5688 57.9439C91.5688 57.9439 87.1603 61.0672 81.0203 57.5424C81.0203 57.5424 78.3125 55.9479 73.6166 57.9095C68.9207 59.8707 69.0462 62.6039 69.0168 62.5925C69.0168 62.5925 67.2803 72.9571 59.759 75.6704C59.759 75.6704 58.8231 76.2403 56.6173 75.7083C53.8841 75.0488 46.4495 78.5337 46.9536 81.7307L46.575 84.4301C46.4883 85.0463 46.1585 86.5292 45.4148 87.9803C44.6676 89.4373 43.505 90.8625 42.7269 91.7526C41.6624 92.9701 37.6156 96.048 34.3408 97.4C34.3408 97.4 31.9653 98.8147 32.6811 104.657C33.3964 110.499 34.9745 114.589 34.9745 114.589Z" fill="#8DCE88"/>
<path fill-rule="evenodd" clip-rule="evenodd" d="M146.841 144.15C145.757 143.303 153.274 144.376 156.436 150.594C166.714 151.023 201.371 114.14 191.811 81.795C193.496 91.7431 182.903 129.164 146.841 144.15Z" fill="#CCF5CA"/>
<path fill-rule="evenodd" clip-rule="evenodd" d="M69.1418 116.102C69.7946 117.055 69.1637 110.591 64.2135 107.697C64.1942 98.8909 95.2661 70.3628 121.235 79.5243C113.208 77.7807 82.4696 85.7058 69.1418 116.102Z" fill="#DDE9DC"/>
<path fill-rule="evenodd" clip-rule="evenodd" d="M129.946 173.346C131.003 172.636 128.522 175.758 125.44 180.977C115.421 181.337 38.5056 166.817 47.8236 139.67C46.1819 157.053 94.7938 168.926 129.946 173.346Z" fill="#CCF5CA"/>
</svg>
