<svg width="24" height="24" viewBox="0 0 24 24" fill="none" xmlns="http://www.w3.org/2000/svg">
<path fill-rule="evenodd" clip-rule="evenodd" d="M21.9904 11.1055C22.0663 9.74262 21.7062 9.36547 20.4379 9.42327H18.1592L18.3345 9.21299C19.5852 9.064 20.1435 8.72798 20.9637 7.84617C23 5.50018 21 3.50002 20.4379 3.06231C19.8756 2.62444 18.1088 1.27819 16.5 2.5004C15.3859 3.34682 14.7897 4.20598 14.8289 5.5331L11.123 9.42327H3.53582C2.41443 9.57711 2.14678 9.99427 2.00837 11.1055C1.91767 15.9917 2.48549 18.3845 7.6424 20.3315C7.57331 21.5811 7.75285 22.0894 9.21992 21.9875H14.904C16.0288 22.0108 16.519 21.8457 16.4315 20.3315C21.793 18.3055 21.9536 15.7633 21.9904 11.1055ZM13.4266 9.42325H15.8805L17.7585 7.53073C18.9673 7.5774 19.3865 7.44851 19.8368 6.63704C20.6277 5.52829 19.6439 4.32349 19.5364 4.21883C18.7929 3.60067 17.8837 3.56171 17.2327 4.03484C16.5277 4.63371 16.3485 4.96894 16.4564 6.00621L13.4266 9.42325Z"/>
</svg>
